<?xml version="1.0" standalone="no"?>
<!DOCTYPE svg PUBLIC "-//W3C//DTD SVG 20010904//EN"
 "http://www.w3.org/TR/2001/REC-SVG-20010904/DTD/svg10.dtd">
<svg version="1.0" xmlns="http://www.w3.org/2000/svg"
 width="982.000000pt" height="254.000000pt" viewBox="0 0 982.000000 254.000000"
 preserveAspectRatio="xMidYMid meet">

<g transform="translate(0.000000,254.000000) scale(0.100000,-0.100000)"
fill="#000000" stroke="none">
<path d="M5604 2277 c-2 -7 -3 -74 -2 -148 l3 -134 160 0 160 0 0 145 0 145
-158 3 c-123 2 -159 0 -163 -11z"/>
<path d="M8748 2280 c-98 -17 -144 -86 -116 -173 25 -77 78 -96 276 -97 l122
0 0 -605 0 -605 -202 0 c-245 0 -274 -9 -303 -82 -30 -81 10 -160 92 -179 58
-13 1054 -11 1109 2 64 16 94 56 94 123 0 40 -6 60 -22 81 -38 49 -69 55 -288
55 l-200 0 -2 743 -3 742 -255 1 c-140 1 -276 -2 -302 -6z"/>
<path d="M646 2194 c-248 -54 -426 -254 -426 -480 0 -124 43 -225 134 -316 88
-89 204 -135 466 -188 85 -17 176 -37 201 -44 129 -38 189 -99 189 -188 0 -54
-23 -89 -86 -134 -149 -106 -412 -105 -588 1 -70 42 -77 51 -101 123 -33 94
-89 130 -174 111 -44 -10 -77 -46 -92 -101 -16 -61 -8 -335 11 -372 24 -47 65
-71 121 -71 41 0 53 5 80 31 l31 31 79 -34 c126 -55 249 -76 399 -70 146 7
215 23 328 79 149 73 228 168 259 312 32 149 -10 297 -117 407 -61 63 -116 94
-235 132 -87 28 -111 34 -315 76 -212 44 -282 85 -311 181 -58 192 282 331
520 212 75 -38 114 -85 136 -164 9 -36 27 -78 40 -94 19 -24 30 -28 88 -32 62
-4 68 -3 96 25 42 42 54 115 49 292 -4 163 -15 197 -71 231 -43 26 -83 25
-135 -5 l-42 -24 -63 29 c-124 58 -319 76 -471 44z"/>
<path d="M2323 1774 c-247 -54 -443 -230 -524 -469 -19 -57 -24 -91 -24 -180
0 -123 13 -172 74 -290 144 -280 552 -421 891 -309 290 97 464 319 464 594 0
260 -132 467 -378 590 -61 30 -130 56 -174 65 -89 18 -245 18 -329 -1z m261
-264 c122 -20 246 -110 307 -222 32 -59 34 -69 34 -158 0 -117 -14 -151 -100
-235 -103 -102 -220 -143 -380 -132 -238 14 -430 216 -394 414 22 121 115 240
233 298 85 41 188 53 300 35z"/>
<path d="M3994 1771 c-198 -46 -356 -173 -444 -356 -51 -107 -64 -169 -65
-300 0 -180 43 -297 152 -415 115 -124 233 -179 440 -206 223 -29 481 3 639
81 86 42 117 66 155 118 51 70 32 160 -43 208 -50 31 -95 21 -175 -40 -97 -73
-163 -92 -343 -98 -248 -9 -367 21 -462 117 -73 74 -92 133 -86 259 12 259
228 413 523 373 100 -13 195 -52 230 -94 14 -16 32 -53 40 -83 21 -69 47 -102
95 -116 78 -23 149 13 169 87 14 50 14 307 1 356 -23 81 -120 114 -197 67
l-35 -22 -46 22 c-89 40 -161 53 -317 57 -121 3 -166 0 -231 -15z"/>
<path d="M7252 1769 c-62 -11 -149 -32 -194 -47 -69 -23 -87 -33 -106 -62 -44
-65 -15 -155 62 -194 41 -20 50 -19 251 25 140 31 352 33 409 4 55 -28 78 -64
84 -130 5 -63 5 -63 -89 -44 -30 5 -120 10 -200 11 -242 0 -394 -51 -528 -178
-82 -77 -115 -129 -137 -215 -29 -113 3 -213 99 -309 73 -73 164 -117 288
-137 93 -15 108 -15 222 1 103 14 237 51 330 91 14 6 17 2 17 -24 l0 -31 183
0 c201 0 247 8 289 50 24 24 28 36 28 83 0 91 -41 127 -155 136 l-70 6 -5 340
-5 340 -32 66 c-57 115 -166 192 -319 224 -97 21 -284 18 -422 -6z m381 -724
c59 -8 112 -17 117 -20 18 -11 12 -110 -7 -127 -69 -60 -272 -128 -405 -135
-216 -12 -319 69 -224 175 94 104 270 140 519 107z"/>
<path d="M5393 1750 c-100 -23 -141 -123 -85 -208 27 -42 74 -54 235 -60 l147
-5 0 -338 0 -338 -214 -3 c-241 -3 -252 -6 -290 -82 -38 -76 15 -168 105 -181
24 -3 280 -5 569 -3 579 3 563 2 607 67 44 65 21 146 -51 181 -38 18 -61 20
-244 20 l-202 0 0 480 0 480 -272 -1 c-150 -1 -288 -4 -305 -9z"/>
</g>
</svg>
